# xmcd
#
# Track frame offsets: 
#        150
#        24532
#        48573
#        76110
#        107818
#        128720
#        150087
#        178551
#        209503
#
# Disc length: 3062 seconds
#
# Revision: 0
# Processed by: cddbd v1.5.1PL2 Copyright (c) Steve Scherf et al.
# Submitted via: ExactAudioCopy v0.95a3
#
DISCID=680bf409
DTITLE=Depeche Mode - 2006-02-19 Milano Audience Recording CD2
DYEAR=2006
DGENRE=Acid Jazz
TTITLE0=Behind The Wheel
TTITLE1=World In My Eyes
TTITLE2=Personal Jesus
TTITLE3=Enjoy The Silence
TTITLE4=A Question Of Lust
TTITLE5=Just Can't Get Enough
TTITLE6=Everything Counts
TTITLE7=Never Let Me Down Again
TTITLE8=Goodnight Lovers
EXTD=
EXTT0=
EXTT1=
EXTT2=
EXTT3=
EXTT4=
EXTT5=
EXTT6=
EXTT7=
EXTT8=
PLAYORDER=
